<svg width="190" height="200" viewBox="0 0 190 200" fill="none" xmlns="http://www.w3.org/2000/svg">
<g clip-path="url(#clip0_5_190)">
<path d="M0 172.329H8.91496C11.0781 172.329 13.1266 172.566 15.0686 173.05C17.0105 173.533 18.7067 174.312 20.157 175.393C21.6073 176.475 22.7544 177.876 23.6066 179.605C24.4588 181.334 24.8849 183.432 24.8849 185.89C24.8849 188.078 24.4752 190.003 23.6476 191.667C22.82 193.33 21.7056 194.731 20.3127 195.862C18.9115 196.993 17.3055 197.853 15.4701 198.435C13.6428 199.017 11.7255 199.312 9.71796 199.312H0V172.329ZM5.94877 193.822H9.03786C10.4062 193.822 11.6845 193.682 12.8644 193.404C14.0443 193.125 15.0686 192.658 15.9371 192.011C16.7975 191.363 17.4776 190.511 17.9774 189.454C18.469 188.397 18.723 187.111 18.723 185.587C18.723 184.267 18.4772 183.12 17.9774 182.137C17.4858 181.162 16.8139 180.351 15.9781 179.72C15.1423 179.089 14.159 178.605 13.0283 178.294C11.8975 177.983 10.7094 177.819 9.46395 177.819H5.95696V193.83L5.94877 193.822Z" fill="#E87A1F"/>
<path d="M27.4823 185.816C27.4823 183.661 27.8428 181.703 28.5721 179.949C29.3014 178.196 30.3092 176.704 31.6038 175.467C32.8985 174.238 34.4389 173.287 36.217 172.624C37.9951 171.96 39.937 171.632 42.0511 171.632C44.1651 171.632 46.107 171.96 47.8851 172.624C49.6632 173.287 51.2036 174.23 52.4983 175.467C53.7929 176.696 54.8008 178.196 55.53 179.949C56.2593 181.703 56.6198 183.661 56.6198 185.816C56.6198 187.971 56.2593 189.93 55.53 191.683C54.8089 193.437 53.7929 194.928 52.4983 196.157C51.2036 197.386 49.6632 198.337 47.8851 199C46.107 199.664 44.1651 199.992 42.0511 199.992C39.937 199.992 37.9951 199.664 36.217 199C34.4389 198.337 32.8985 197.394 31.6038 196.157C30.3092 194.928 29.3014 193.428 28.5721 191.683C27.851 189.93 27.4823 187.971 27.4823 185.816ZM33.6523 185.816C33.6523 187.086 33.849 188.25 34.2423 189.307C34.6356 190.364 35.201 191.273 35.9384 192.052C36.6759 192.83 37.5608 193.428 38.585 193.863C39.6093 194.297 40.7646 194.51 42.0347 194.51C43.3047 194.51 44.4519 194.297 45.4843 193.863C46.5167 193.428 47.3935 192.83 48.1309 192.052C48.8684 191.273 49.4338 190.364 49.8271 189.307C50.2204 188.25 50.417 187.086 50.417 185.816C50.417 184.546 50.2204 183.415 49.8271 182.35C49.4338 181.285 48.8684 180.359 48.1309 179.589C47.3935 178.81 46.5085 178.212 45.4843 177.778C44.4601 177.344 43.3047 177.13 42.0347 177.13C40.7646 177.13 39.6175 177.344 38.585 177.778C37.5526 178.212 36.6759 178.81 35.9384 179.589C35.201 180.367 34.6356 181.285 34.2423 182.35C33.849 183.415 33.6523 184.571 33.6523 185.816Z" fill="#E87A1F"/>
<path d="M60.8642 172.329H66.813V183.53L77.293 172.329H85.069L73.0649 184.866L86.1014 199.312H77.7928L66.813 186.504V199.312H60.8642V172.329Z" fill="#E87A1F"/>
<path d="M88.0844 172.329H94.0331V199.312H88.0844V172.329Z" fill="#E87A1F"/>
<path d="M99.6705 172.329H117.779V177.819H105.619V183.309H116.861V188.799H105.619V199.32H99.6705V172.337V172.329Z" fill="#E87A1F"/>
<path d="M122.04 172.329H132.487C133.855 172.329 135.158 172.46 136.396 172.73C137.625 173.001 138.706 173.443 139.632 174.066C140.558 174.689 141.295 175.524 141.844 176.581C142.393 177.638 142.664 178.95 142.664 180.523C142.664 182.432 142.164 184.046 141.181 185.382C140.189 186.717 138.739 187.561 136.838 187.914L143.696 199.312H136.568L130.93 188.528H127.997V199.312H122.048V172.329H122.04ZM127.989 183.489H131.496C132.028 183.489 132.594 183.473 133.192 183.432C133.79 183.391 134.331 183.276 134.814 183.088C135.298 182.899 135.699 182.596 136.019 182.194C136.338 181.785 136.494 181.219 136.494 180.482C136.494 179.793 136.355 179.253 136.076 178.843C135.797 178.433 135.437 178.122 135.011 177.909C134.585 177.696 134.085 177.548 133.528 177.466C132.97 177.393 132.421 177.352 131.889 177.352H127.997V183.489H127.989Z" fill="#E87A1F"/>
<path d="M146.966 172.329H165.295V177.819H152.906V182.85H164.607V188.34H152.906V193.83H165.984V199.32H146.966V172.337V172.329Z" fill="#E87A1F"/>
<path d="M170.982 172.329H189.312V177.819H176.923V182.85H188.623V188.34H176.923V193.83H190V199.32H170.982V172.337V172.329Z" fill="#E87A1F"/>
<path d="M88.9447 55.785C90.9194 53.7119 91.9191 51.0488 92.3206 48.2547C92.3288 48.1645 92.337 48.0826 92.3288 47.9925C91.6323 36.9059 93.2465 24.8525 92.337 13.8971C91.1489 -0.434291 70.4429 -3.42511 64.5105 9.21009C64.2975 9.66076 63.8632 9.94755 63.3634 9.96394C55.2678 10.2261 48.8684 16.8223 48.9012 24.4674C48.9012 25.0819 48.4423 25.6145 47.8278 25.6965C39.6175 26.7945 34.0047 34.5133 34.7257 42.3468C34.7831 42.9859 34.8896 43.7807 35.1354 44.8541C35.2665 45.4113 35.0207 46.0095 34.5045 46.2635C27.171 49.9017 24.2621 58.6775 27.4741 65.9456C27.6872 66.4208 27.597 66.9698 27.2529 67.355C21.2632 73.9757 22.1973 83.6775 28.8999 89.4789C29.3423 89.864 29.4653 90.5113 29.2112 91.0357C24.3686 100.844 30.8582 112.553 42.1658 114.028C42.6246 114.086 43.0179 114.389 43.19 114.815C46.9182 123.795 58.0783 127.507 66.8622 122.525C67.321 122.263 67.8864 122.304 68.3043 122.632C71.2459 124.91 74.7201 125.893 78.1042 125.795C79.0875 125.762 79.6692 124.68 79.1448 123.845C74.2858 116.101 72.8109 109.907 72.475 106.441C72.0899 102.434 75.1462 90.0606 81.267 85.6932C84.1267 83.6447 87.2404 82.645 89.7395 82.1534C90.5835 81.9895 91.0014 81.0636 90.5999 80.3015C90.1246 79.4002 89.5429 78.5234 88.871 77.6958C88.4859 77.2206 88.5023 76.5405 88.9119 76.0816C93.6644 70.7801 93.3612 62.8319 88.8874 57.3992C88.4941 56.9158 88.5268 56.2111 88.9529 55.7604L88.9447 55.785Z" fill="#552E99"/>
<path d="M111.625 127.204C110.691 127.204 109.741 127.122 108.799 126.967C108.389 126.901 108.036 126.622 107.873 126.237C107.709 125.852 107.75 125.41 107.979 125.066C114.1 115.97 115.329 109.03 115.567 106.473C115.919 102.761 113.002 90.9046 107.283 86.8158C103.972 84.4477 100.285 83.5546 97.7695 83.2268C97.3926 83.1777 97.0649 82.9564 96.8682 82.6368C96.6798 82.3091 96.647 81.9158 96.7863 81.5634C97.4254 79.9328 98.3185 78.4087 99.4493 77.0239C97.0895 74.3936 95.762 71.0259 95.6801 67.4287C95.59 63.5693 96.9502 59.7345 99.4329 56.7109C97.4172 54.5969 96.1635 51.7863 95.7047 48.3448C95.6965 48.2629 95.6883 48.1809 95.6965 48.099C96.0406 42.8138 95.8358 37.1763 95.6473 31.7273C95.4343 25.7702 95.2212 19.6083 95.6965 13.807C96.2865 6.67814 101.498 1.34383 108.971 0.204857C115.083 -0.721069 122.564 1.58145 125.883 8.74304C130.226 8.87415 134.363 10.726 137.338 13.9053C140.083 16.8306 141.599 20.6408 141.59 24.5166C145.499 25.041 149.055 26.9748 151.702 30.0475C154.693 33.5218 156.167 38.0613 155.758 42.5189C155.7 43.1662 155.594 44.0347 155.315 45.2393C159.043 47.0911 161.862 50.2376 163.304 54.1872C164.779 58.2186 164.624 62.6926 162.886 66.6011C165.951 69.9771 167.475 74.2298 167.188 78.6791C166.901 83.2104 164.705 87.4959 161.133 90.5851C163.534 95.4441 163.485 101.123 160.953 105.973C158.24 111.168 153.152 114.659 147.228 115.429C145.335 120.018 141.55 123.55 136.732 125.197C131.741 126.901 126.333 126.377 121.761 123.763C118.861 126.024 115.304 127.221 111.625 127.221V127.204ZM111.134 124.738C114.706 124.861 118.156 123.656 120.844 121.313C121.253 120.952 121.851 120.911 122.31 121.206C126.407 123.812 131.373 124.41 135.937 122.853C140.296 121.362 143.672 118.084 145.196 113.856C145.36 113.405 145.769 113.094 146.245 113.045C151.653 112.57 156.339 109.489 158.773 104.818C161.117 100.336 161.018 95.2475 158.511 90.8637C158.208 90.331 158.339 89.6509 158.83 89.2822C162.321 86.5864 164.476 82.6614 164.746 78.507C165 74.492 163.517 70.649 160.551 67.6909C160.174 67.314 160.084 66.7404 160.322 66.2652C162.092 62.7909 162.337 58.6939 160.994 55.023C159.666 51.3848 156.962 48.5579 153.39 47.0502C152.816 46.8125 152.513 46.1898 152.677 45.5916C153.111 44.0184 153.242 43.0023 153.3 42.2812C153.652 38.4874 152.382 34.6034 149.825 31.6372C147.351 28.7611 143.942 27.0567 140.23 26.8437C139.903 26.8273 139.591 26.6716 139.37 26.4258C139.149 26.1718 139.042 25.844 139.075 25.5162C139.378 21.9272 138.092 18.3137 135.535 15.5851C132.848 12.7171 129.037 11.1193 125.096 11.2013H125.072C124.572 11.2013 124.121 10.8981 123.933 10.431C121.302 3.91675 114.706 1.81908 109.339 2.63849C104.546 3.36775 98.7446 6.78467 98.1465 14.0118C97.6794 19.6657 97.8925 25.7539 98.0973 31.6454C98.2858 37.1108 98.4906 42.7647 98.1547 48.14C98.6135 51.4012 99.8918 53.9495 101.94 55.7112C102.194 55.9325 102.35 56.2439 102.366 56.5798C102.383 56.9158 102.26 57.2435 102.03 57.4894C99.4739 60.1606 98.0563 63.766 98.1383 67.3796C98.212 70.7227 99.5722 73.8201 101.965 76.098C102.448 76.5651 102.473 77.3271 102.014 77.827C101.088 78.8266 100.318 79.9082 99.7115 81.0718C102.342 81.588 105.66 82.6532 108.708 84.8328C115.337 89.5772 118.418 102.36 118.008 106.719C117.705 109.915 116.394 116.355 111.117 124.746L111.134 124.738Z" fill="#552E99"/>
<path d="M82.1438 98.5087C78.8416 100.926 76.7276 104.31 76.7276 108.063C76.7276 123.55 98.0727 150.664 115.493 160.292C115.567 159.964 115.493 146.009 115.493 146.009C103.981 142.011 83.3811 112.537 82.1356 98.5087H82.1438Z" fill="url(#paint0_linear_5_190)"/>
<path d="M106.48 98.5087C109.782 100.926 111.896 104.31 111.896 108.063C111.896 123.55 90.5507 150.664 73.1305 160.292C73.0567 159.964 73.1305 146.009 73.1305 146.009C84.6429 142.011 105.242 112.537 106.488 98.5087H106.48Z" fill="url(#paint1_linear_5_190)"/>
<path d="M89.6002 86.234C91.1653 85.8079 97.4582 85.8079 99.0232 86.234C106.308 88.217 108.479 96.9682 111.339 104.605C104.005 95.2639 84.1841 96.3537 77.293 104.605C80.6525 95.4769 80.2756 88.7742 89.6002 86.234Z" fill="#B653FF"/>
<path d="M79.2268 42.9531L76.3425 22.9597C77.8092 22.4107 78.8662 21.0095 78.8662 19.3461C78.8662 17.2075 77.1373 15.4785 74.9987 15.4785C72.8601 15.4785 71.1312 17.2075 71.1312 19.3461C71.1312 19.9033 71.2541 20.4277 71.4671 20.9112L54.7844 33.0547C53.8175 32.0878 52.4901 31.4897 51.0152 31.4897C48.0818 31.4897 45.6973 33.8741 45.6973 36.8076C45.6973 38.7168 46.7134 40.3884 48.2293 41.3307L37.3969 67.0927C37.1921 67.06 36.979 67.0272 36.7578 67.0272C34.7175 67.0272 33.0624 68.6824 33.0624 70.7227C33.0624 72.763 34.7175 74.4182 36.7578 74.4182C36.807 74.4182 36.8479 74.41 36.8889 74.4018L41.6414 92.232C40.4696 92.8548 39.6584 94.0675 39.6584 95.4933C39.6584 97.5336 41.3136 99.1888 43.3539 99.1888C45.3942 99.1888 47.0493 97.5336 47.0493 95.4933C47.0493 93.4529 45.3942 91.7978 43.3539 91.7978C43.3047 91.7978 43.2638 91.806 43.2228 91.8141L38.6178 74.5411L60.2907 103.122C59.3648 104.081 58.7994 105.375 58.7994 106.809C58.7994 109.743 61.1838 112.127 64.1172 112.127C67.0506 112.127 69.4351 109.743 69.4351 106.809C69.4351 104.621 68.1076 102.737 66.2149 101.926L78.645 53.5726C78.8171 53.589 78.9891 53.5972 79.1612 53.5972C82.0946 53.5972 84.479 51.2127 84.479 48.2792C84.479 45.3458 82.1274 42.9941 79.2186 42.9613L79.2268 42.9531ZM61.6017 102.114L39.5765 73.0744C39.6421 73.0006 39.7076 72.9269 39.765 72.845L57.0623 80.0065C57.0295 80.2114 56.9967 80.4162 56.9967 80.6211C56.9967 82.5467 58.4716 84.1036 60.348 84.2838L62.6259 101.696C62.2654 101.803 61.9213 101.942 61.5935 102.114H61.6017ZM57.6932 78.4906L40.3959 71.3291C40.4287 71.1242 40.4615 70.9194 40.4615 70.7145C40.4615 70.3867 40.4041 70.0672 40.3222 69.764L55.8987 61.5372C56.5133 62.2746 57.39 62.7745 58.3897 62.8974L59.586 77.114C58.8158 77.3599 58.1521 77.8433 57.6932 78.4906ZM58.8813 55.1131C58.7093 55.1131 58.5454 55.1458 58.3815 55.1622L53.5389 41.4782C54.3747 41.0275 55.0712 40.3474 55.5628 39.5362L73.9909 47.0419C73.9007 47.4353 73.8434 47.845 73.8434 48.2629C73.8434 48.8692 73.9499 49.451 74.1384 50L61.8639 56.5142C61.1428 55.6621 60.0776 55.1049 58.8813 55.1049V55.1131ZM72.434 22.2222C73.0568 22.7712 73.8434 23.1235 74.7201 23.1891L77.6044 43.1825C76.3425 43.5677 75.2855 44.4198 74.6136 45.526L57.7752 38.6676L56.1855 38.0203C56.2757 37.627 56.333 37.2173 56.333 36.7994C56.333 35.9226 56.12 35.1032 55.7431 34.374L72.434 22.2222ZM49.7369 41.9534C50.1466 42.0518 50.5727 42.1173 51.0152 42.1173C51.3511 42.1173 51.6789 42.0845 51.9985 42.0272L56.841 55.703C55.7185 56.3913 54.9728 57.6204 54.9728 59.0298C54.9728 59.3985 55.0384 59.7509 55.1367 60.0868L39.5601 68.3137C39.3717 68.0924 39.1586 67.8876 38.921 67.7155L49.7533 41.9534H49.7369ZM64.6416 101.508C64.5187 101.499 64.3876 101.491 64.2565 101.491L61.9786 84.0872C63.388 83.5628 64.3958 82.2189 64.3958 80.6293C64.3958 79.5477 63.9288 78.589 63.1913 77.9171L76.8505 53.9823L64.6334 101.516L64.6416 101.508ZM61.7738 77.0977C61.5935 77.0403 61.4132 76.9993 61.2248 76.9747L60.0285 62.7581C61.6345 62.2665 62.8144 60.7915 62.8144 59.0298C62.8144 58.6611 62.7488 58.3087 62.6505 57.9646L74.925 51.4503C75.1954 51.8109 75.5067 52.1386 75.8591 52.4172L61.7738 77.0895V77.0977Z" fill="white"/>
<path d="M153.259 67.4451C152.996 67.4451 152.742 67.4697 152.497 67.5188L143.401 46.6322C144.884 45.6899 145.868 44.0347 145.868 42.1501C145.868 39.2166 143.483 36.8322 140.55 36.8322C139.214 36.8322 138.002 37.3238 137.067 38.1432L116.919 21.1488C117.205 20.608 117.386 20.0016 117.386 19.3461C117.386 17.2075 115.657 15.4785 113.518 15.4785C111.38 15.4785 109.651 17.2075 109.651 19.3461C109.651 21.2471 111.019 22.8122 112.822 23.1481L113.715 51.4585C111.248 51.9174 109.38 54.0806 109.38 56.6781C109.38 59.6116 111.765 61.996 114.698 61.996C115.018 61.996 115.337 61.9633 115.64 61.9059L128.923 100.295C127.767 100.967 126.981 102.204 126.981 103.638C126.981 105.777 128.71 107.506 130.848 107.506C132.987 107.506 134.716 105.777 134.716 103.638C134.716 101.999 133.692 100.606 132.249 100.041L135.035 79.0478C137.01 78.8839 138.575 77.2533 138.583 75.2376L149.727 72.9023C150.333 74.2543 151.677 75.1966 153.259 75.1966C155.397 75.1966 157.126 73.4677 157.126 71.3291C157.126 69.1904 155.397 67.4615 153.259 67.4615V67.4451ZM115.862 22.4025L136.01 39.3969C135.92 39.5444 135.838 39.7001 135.765 39.8558L124.301 36.4061C124.301 36.3077 124.334 36.2094 124.334 36.1029C124.334 33.9643 122.605 32.2353 120.467 32.2353C120.229 32.2353 120 32.2681 119.778 32.3009L115.731 22.5254C115.78 22.4926 115.829 22.4434 115.878 22.4025H115.862ZM115.345 51.311L114.477 23.8037L118.254 32.9236C117.246 33.6201 116.591 34.7837 116.591 36.1029C116.591 37.586 117.435 38.8561 118.656 39.5116L115.345 51.3192V51.311ZM120.229 39.9459C120.303 39.9459 120.376 39.9705 120.458 39.9705C121.917 39.9705 123.171 39.1593 123.826 37.9711L135.289 41.4208C135.257 41.6585 135.232 41.9043 135.232 42.1501C135.232 42.8056 135.355 43.4284 135.568 44.0101L118.861 53.3923C118.336 52.7286 117.664 52.196 116.886 51.8436L120.213 39.9541L120.229 39.9459ZM130.627 99.7869C130.578 99.7869 130.529 99.7951 130.48 99.8033L117.189 61.3815C117.476 61.2258 117.746 61.0537 117.992 60.8489L131.397 73.2546C131.053 73.8282 130.848 74.4919 130.848 75.213C130.848 76.8928 131.922 78.3022 133.413 78.843L130.635 99.7951L130.627 99.7869ZM134.568 71.3536C133.798 71.3864 133.093 71.6322 132.503 72.0419L119.106 59.6444C119.68 58.8004 120.008 57.7761 120.008 56.6781C120.008 56.0226 119.885 55.3998 119.672 54.8181L136.379 45.4359C137.01 46.2307 137.854 46.8453 138.837 47.1812L134.568 71.3536ZM149.383 71.2963L138.239 73.6316C137.838 72.7302 137.092 72.0092 136.174 71.6322L140.435 47.468C140.435 47.468 140.509 47.468 140.542 47.468C141.009 47.468 141.459 47.4025 141.885 47.2878L150.989 68.1825C150.022 68.879 149.391 70.0098 149.383 71.2881V71.2963Z" fill="#552E99"/>
</g>
<defs>
<linearGradient id="paint0_linear_5_190" x1="94.2953" y1="127.819" x2="128.481" y2="169.608" gradientUnits="userSpaceOnUse">
<stop stop-color="#6400B5"/>
<stop offset="0.5" stop-color="#B653FF"/>
<stop offset="1" stop-color="#7C1BD1"/>
</linearGradient>
<linearGradient id="paint1_linear_5_190" x1="94.3199" y1="127.819" x2="60.1425" y2="169.608" gradientUnits="userSpaceOnUse">
<stop stop-color="#6400B5"/>
<stop offset="0.5" stop-color="#B653FF"/>
<stop offset="1" stop-color="#7C1BD1"/>
</linearGradient>
<clipPath id="clip0_5_190">
<rect width="190" height="200" fill="white"/>
</clipPath>
</defs>
</svg>
