<svg width="1200" height="720" viewBox="0 0 1200 720" fill="none" xmlns="http://www.w3.org/2000/svg">
  <defs>
    <linearGradient id="bg1" x1="136" y1="96" x2="1062" y2="624" gradientUnits="userSpaceOnUse">
      <stop stop-color="#FBF5EC"/>
      <stop offset="1" stop-color="#E8F0E8"/>
    </linearGradient>
    <linearGradient id="panel1" x1="170" y1="122" x2="1024" y2="580" gradientUnits="userSpaceOnUse">
      <stop stop-color="#FFFDF9"/>
      <stop offset="1" stop-color="#F6F8F5"/>
    </linearGradient>
    <linearGradient id="screen" x1="640" y1="166" x2="980" y2="360" gradientUnits="userSpaceOnUse">
      <stop stop-color="#EEF5F0"/>
      <stop offset="1" stop-color="#DCE8E1"/>
    </linearGradient>
    <linearGradient id="shirt1" x1="278" y1="407" x2="485" y2="600" gradientUnits="userSpaceOnUse">
      <stop stop-color="#E8855E"/>
      <stop offset="1" stop-color="#C96B49"/>
    </linearGradient>
    <linearGradient id="shirt2" x1="452" y1="351" x2="670" y2="576" gradientUnits="userSpaceOnUse">
      <stop stop-color="#819E82"/>
      <stop offset="1" stop-color="#5E7B64"/>
    </linearGradient>
    <filter id="shadow" x="92" y="82" width="1016" height="576" filterUnits="userSpaceOnUse" color-interpolation-filters="sRGB">
      <feFlood flood-opacity="0" result="BackgroundImageFix"/>
      <feColorMatrix in="SourceAlpha" type="matrix" values="0 0 0 0 0 0 0 0 0 0 0 0 0 0 0 0 0 0 127 0" result="hardAlpha"/>
      <feOffset dy="16"/>
      <feGaussianBlur stdDeviation="20"/>
      <feComposite in2="hardAlpha" operator="out"/>
      <feColorMatrix type="matrix" values="0 0 0 0 0.345098 0 0 0 0 0.309804 0 0 0 0 0.235294 0 0 0 0.12 0"/>
      <feBlend mode="normal" in2="BackgroundImageFix" result="effect1_dropShadow_0_1"/>
      <feBlend mode="normal" in="SourceGraphic" in2="effect1_dropShadow_0_1" result="shape"/>
    </filter>
  </defs>
  <rect width="1200" height="720" rx="40" fill="#F5F1E8"/>
  <circle cx="140" cy="156" r="102" fill="#EADFCF"/>
  <circle cx="1034" cy="586" r="116" fill="#DDE8DB"/>
  <g filter="url(#shadow)">
    <rect x="132" y="106" width="936" height="536" rx="36" fill="url(#bg1)"/>
    <rect x="162" y="136" width="876" height="476" rx="28" fill="url(#panel1)"/>
  </g>
  <rect x="602" y="162" width="364" height="208" rx="26" fill="url(#screen)"/>
  <rect x="634" y="194" width="132" height="16" rx="8" fill="#7D9B7E"/>
  <rect x="634" y="226" width="218" height="12" rx="6" fill="#A0B5A2"/>
  <rect x="634" y="252" width="190" height="12" rx="6" fill="#A0B5A2"/>
  <rect x="634" y="278" width="228" height="12" rx="6" fill="#A0B5A2"/>
  <path d="M878 221C891.255 221 902 210.255 902 197C902 183.745 891.255 173 878 173C864.745 173 854 183.745 854 197C854 210.255 864.745 221 878 221Z" fill="#E8855E"/>
  <path d="M870 198L876 204L887 191" stroke="#FFFDF9" stroke-width="7" stroke-linecap="round" stroke-linejoin="round"/>
  <rect x="634" y="316" width="146" height="28" rx="14" fill="#E8855E"/>
  <rect x="798" y="316" width="116" height="28" rx="14" fill="#6C876F"/>
  <ellipse cx="378" cy="606" rx="260" ry="30" fill="#D8D9D0"/>
  <ellipse cx="752" cy="606" rx="186" ry="24" fill="#D8D9D0"/>

  <path d="M302 290C302 252.997 331.997 223 369 223C406.003 223 436 252.997 436 290V337H302V290Z" fill="#58473D"/>
  <path d="M328 325C328 289.654 356.654 261 392 261C427.346 261 456 289.654 456 325V350H328V325Z" fill="#6B5649"/>
  <path d="M336 339C336 303.654 364.654 275 400 275C435.346 275 464 303.654 464 339V371H336V339Z" fill="#F0C9AD"/>
  <path d="M359 391C359 374.431 372.431 361 389 361H410C426.569 361 440 374.431 440 391V423H359V391Z" fill="#E6B797"/>
  <path d="M292 600V477C292 424.533 334.533 382 387 382H396C448.467 382 491 424.533 491 477V600H292Z" fill="url(#shirt1)"/>
  <path d="M344 411L383 461L433 406" stroke="#FFF6EE" stroke-width="14" stroke-linecap="round" stroke-linejoin="round"/>
  <path d="M315 600V495C315 461.863 341.863 435 375 435H397C430.137 435 457 461.863 457 495V600H315Z" fill="#D97754" fill-opacity="0.32"/>
  <path d="M292 476C270.735 493.26 256 518.495 256 547V600H292V476Z" fill="#C96645"/>
  <path d="M491 482C513.294 499.13 528 524.824 528 554V600H491V482Z" fill="#C96645"/>
  <rect x="330" y="443" width="39" height="94" rx="19.5" transform="rotate(18 330 443)" fill="#F0C9AD"/>
  <rect x="455" y="436" width="39" height="108" rx="19.5" transform="rotate(-28 455 436)" fill="#F0C9AD"/>

  <path d="M492 251C492 216.206 520.206 188 555 188C589.794 188 618 216.206 618 251V292H492V251Z" fill="#4F6473"/>
  <path d="M499 304C499 271.415 525.415 245 558 245C590.585 245 617 271.415 617 304V346H499V304Z" fill="#F0C9AD"/>
  <path d="M521 364C521 347.431 534.431 334 551 334H572C588.569 334 602 347.431 602 364V390H521V364Z" fill="#E6B797"/>
  <path d="M449 600V466C449 420.161 486.161 383 532 383H571C616.839 383 654 420.161 654 466V600H449Z" fill="url(#shirt2)"/>
  <path d="M512 401C532.667 421.667 553.333 442.333 574 463" stroke="#E8F0E8" stroke-width="14" stroke-linecap="round"/>
  <path d="M654 485C678.266 500.299 694 526.977 694 557V600H654V485Z" fill="#56705C"/>
  <path d="M449 482C430.224 499.342 418 523.978 418 551V600H449V482Z" fill="#56705C"/>
  <rect x="434" y="443" width="37" height="118" rx="18.5" transform="rotate(22 434 443)" fill="#F0C9AD"/>
  <rect x="622" y="423" width="37" height="90" rx="18.5" transform="rotate(-14 622 423)" fill="#F0C9AD"/>

  <path d="M781 458C781 432.595 801.595 412 827 412H919C944.405 412 965 432.595 965 458V534C965 559.405 944.405 580 919 580H827C801.595 580 781 559.405 781 534V458Z" fill="#FBF8F3" stroke="#D4D8CF" stroke-width="3"/>
  <rect x="808" y="438" width="124" height="16" rx="8" fill="#809B81"/>
  <rect x="808" y="470" width="132" height="12" rx="6" fill="#A6B7A5"/>
  <rect x="808" y="494" width="118" height="12" rx="6" fill="#A6B7A5"/>
  <rect x="808" y="518" width="96" height="12" rx="6" fill="#A6B7A5"/>
  <circle cx="910" cy="518" r="28" fill="#E8855E"/>
  <path d="M898 518H922" stroke="#FFFDF9" stroke-width="8" stroke-linecap="round"/>
  <path d="M910 506V530" stroke="#FFFDF9" stroke-width="8" stroke-linecap="round"/>
</svg>
