<svg width="1200" height="720" viewBox="0 0 1200 720" fill="none" xmlns="http://www.w3.org/2000/svg">
  <rect width="1200" height="720" rx="40" fill="#F7F3EA"/>
  <circle cx="173" cy="124" r="84" fill="#E9E0CF"/>
  <circle cx="1038" cy="596" r="92" fill="#E0EAD8"/>
  <rect x="112" y="112" width="976" height="496" rx="32" fill="#FFFDF8" stroke="#D9CDB6" stroke-width="4"/>
  <rect x="168" y="168" width="386" height="384" rx="28" fill="#FFF4E2"/>
  <path d="M332 262C283.399 262 244 301.399 244 350C244 398.601 283.399 438 332 438H348V470C348 476.627 353.373 482 360 482H376C382.627 482 388 476.627 388 470V438H406V470C406 476.627 411.373 482 418 482H434C440.627 482 446 476.627 446 470V438C494.601 438 534 398.601 534 350C534 301.399 494.601 262 446 262C428.96 262 413.05 266.844 399.57 275.237C385.128 252.682 360.006 238 332 238C287.817 238 252 273.817 252 318H292C292 295.909 309.909 278 332 278C350.432 278 365.936 290.462 370.574 307.406L376.26 328.179L393.181 323.458C400.365 321.455 407.931 320.4 415.75 320.4C432.108 320.4 447.294 325.489 459.789 334.162C472.375 342.897 480 355.878 480 370C480 396.51 458.51 418 432 418H332C306.595 418 286 397.405 286 372C286 346.595 306.595 326 332 326H354V286H332V262Z" fill="#EF8C5B"/>
  <path d="M356 302L324 358H368L340 422L428 342H386L414 302H356Z" fill="#FFFDF8"/>
  <rect x="604" y="176" width="420" height="150" rx="24" fill="#E8F0E4"/>
  <circle cx="680" cy="252" r="42" fill="#6D8B74"/>
  <path d="M664 250L676 262L700 238" stroke="#FFFDF8" stroke-width="10" stroke-linecap="round" stroke-linejoin="round"/>
  <rect x="744" y="216" width="220" height="18" rx="9" fill="#6D8B74"/>
  <rect x="744" y="252" width="184" height="16" rx="8" fill="#A0B89F"/>
  <rect x="744" y="282" width="156" height="16" rx="8" fill="#A0B89F"/>
  <rect x="604" y="356" width="420" height="160" rx="24" fill="#F6E7D7"/>
  <rect x="646" y="400" width="116" height="16" rx="8" fill="#A66A43"/>
  <rect x="646" y="434" width="268" height="14" rx="7" fill="#D09A73"/>
  <rect x="646" y="464" width="230" height="14" rx="7" fill="#D09A73"/>
  <circle cx="940" cy="436" r="46" fill="#EF8C5B"/>
  <path d="M924 436H956" stroke="#FFFDF8" stroke-width="10" stroke-linecap="round"/>
  <path d="M940 420V452" stroke="#FFFDF8" stroke-width="10" stroke-linecap="round"/>
  <path d="M228 560C260.719 560 287.25 533.719 287.25 501.3C287.25 468.881 260.719 442.6 228 442.6C195.281 442.6 168.75 468.881 168.75 501.3C168.75 533.719 195.281 560 228 560Z" fill="#D1B99D"/>
  <path d="M218 562H238C275.555 562 306 592.221 306 629.5V632H150V629.5C150 592.221 180.445 562 218 562Z" fill="#6D8B74"/>
  <path d="M334 560C366.719 560 393.25 533.719 393.25 501.3C393.25 468.881 366.719 442.6 334 442.6C301.281 442.6 274.75 468.881 274.75 501.3C274.75 533.719 301.281 560 334 560Z" fill="#E2C9B0"/>
  <path d="M324 562H344C381.555 562 412 592.221 412 629.5V632H256V629.5C256 592.221 286.445 562 324 562Z" fill="#EF8C5B"/>
</svg>
